<svg width="149" height="30" viewBox="0 0 149 30" fill="none" xmlns="http://www.w3.org/2000/svg">
<path d="M13.8227 25.8401C15.2245 25.8544 16.6121 25.5554 17.8819 24.9655C19.0942 24.3967 20.1713 23.5801 21.0425 22.5689C21.9427 21.5085 22.6323 20.2887 23.0753 18.9741C23.5679 17.5507 23.8141 16.055 23.8023 14.5501C23.8146 13.0957 23.5627 11.6509 23.0578 10.2851C22.5975 9.01265 21.8937 7.84021 20.9855 6.83226C20.0984 5.85808 19.024 5.07019 17.8249 4.51522C16.5693 3.93912 15.2002 3.6481 13.8169 3.66339C12.4557 3.65076 11.1098 3.94188 9.87749 4.51522C8.68526 5.07342 7.6166 5.86102 6.73431 6.83226C5.83038 7.82988 5.12182 8.98531 4.64397 10.2397C4.13024 11.5817 3.87205 13.0067 3.8826 14.4422C3.87151 15.9485 4.11544 17.4457 4.60385 18.8719C5.05159 20.191 5.74273 21.4159 6.64245 22.4837C7.50783 23.5017 8.57597 24.3312 9.78033 24.9201C11.0375 25.5257 12.4193 25.8329 13.8169 25.8173L13.8227 25.8401ZM29.5227 29.4917H13.9768C12.1183 29.5011 10.2777 29.1282 8.57228 28.3956C6.89852 27.6837 5.38423 26.649 4.11755 25.3516C2.81974 24.009 1.79701 22.4294 1.10586 20.7005C0.356107 18.8212 -0.0193 16.8154 0.000763784 14.7943C-0.0177161 12.7913 0.345546 10.8028 1.07154 8.93352C1.74051 7.19612 2.74161 5.60325 4.01987 4.24264C5.267 2.92445 6.76811 1.86806 8.43447 1.13621C10.1673 0.376485 12.0428 -0.0106343 13.9373 0.00037058C15.7794 -0.0134628 17.6042 0.360143 19.2907 1.09646C20.929 1.80951 22.41 2.83615 23.6477 4.1177C24.9101 5.43598 25.9117 6.97695 26.6023 8.66094C27.3362 10.4748 27.7037 12.414 27.6848 14.3684C27.6869 15.5778 27.5522 16.7836 27.2835 17.9632C27.03 19.1111 26.634 20.2231 26.1045 21.2741C25.5965 22.2831 24.9423 23.213 24.163 24.0341C23.4053 24.8343 22.5093 25.4939 21.5177 25.9821V26.0615H29.5338L29.5227 29.4917Z" fill="#009DA4"/>
<path d="M49.2307 8.49597V29.5083H45.5549V25.2435H45.5147C45.1995 26.5593 44.4497 27.7328 43.3848 28.5771C42.2126 29.5403 40.7262 30.045 39.2052 29.9969C36.5863 29.9969 34.6628 29.2664 33.4335 27.8048C32.1258 26.2041 31.4558 24.1836 31.5497 22.1257V8.49597H35.2484V21.7339C35.2484 25.1868 36.7198 26.8905 39.7089 26.8905C40.4972 26.9183 41.2829 26.7769 42.0109 26.476C42.7391 26.1751 43.3931 25.7218 43.9287 25.1469C45.0337 24.0112 45.5665 22.1825 45.5665 19.6213V8.49597H49.2307Z" fill="#009DA4"/>
<path d="M65.1972 25.1953C66.4284 24.0197 67.041 22.1911 67.041 19.7547V16.9493H66.9606C66.6808 17.7573 66.1318 18.4464 65.4036 18.9029C64.5848 19.4311 63.1533 19.8739 61.1035 20.2431C59.7974 20.3982 58.5322 20.7971 57.3759 21.4186C56.9832 21.6695 56.6658 22.021 56.4573 22.4356C56.2487 22.8504 56.1562 23.3132 56.1907 23.7755C56.1864 24.2376 56.2957 24.6938 56.509 25.1045C56.7222 25.5152 57.0338 25.868 57.4161 26.1323C58.3543 26.7678 59.4763 27.0809 60.611 27.0238C61.4594 27.0409 62.3021 26.8876 63.0894 26.5733C63.8767 26.2591 64.5915 25.7903 65.1913 25.1953H65.1972ZM66.9549 26.4561V25.6439H66.9147C66.5119 26.8401 65.7537 27.8875 64.7393 28.6481C63.6343 29.54 62.0424 29.9883 59.9526 29.9883C57.576 29.9883 55.7328 29.3807 54.4671 28.12C53.8621 27.5658 53.3791 26.8943 53.047 26.1468C52.7148 25.3994 52.5416 24.5923 52.5379 23.7755C52.5222 22.8709 52.7349 21.9768 53.1563 21.1745C53.5083 20.4914 53.9952 19.8849 54.5875 19.3912C55.2471 18.912 55.98 18.5399 56.7578 18.2895C57.51 18.0479 58.2746 17.8452 59.0475 17.6819C59.6664 17.5626 60.4446 17.4377 61.4241 17.3185L63.2679 17.0743C64.3096 16.9626 65.3081 16.5998 66.1767 16.0179C66.4459 15.7727 66.656 15.4699 66.7912 15.1326C66.9258 14.7952 66.9818 14.4319 66.9549 14.07C66.9554 13.6308 66.843 13.1987 66.6275 12.815C66.4116 12.4312 66.1011 12.1086 65.7241 11.8779C64.6634 11.2885 63.4574 11.0052 62.243 11.0601C61.0888 11.005 59.9542 11.3661 59.0475 12.0766C58.6284 12.4105 58.2862 12.8306 58.0464 13.3081C57.8063 13.7855 57.6732 14.309 57.6563 14.8424H53.9746C54.0718 13.0244 54.8616 11.3108 56.1848 10.0492C57.5766 8.66923 59.5402 7.97637 62.1226 7.97637C63.4272 7.95946 64.7267 8.15124 65.9701 8.54426C66.899 8.83433 67.7611 9.30331 68.5066 9.9243C69.0953 10.495 69.5695 11.1714 69.9037 11.9176C70.1931 12.6085 70.3991 13.331 70.5162 14.07C70.6002 14.7844 70.6403 15.5031 70.6366 16.2224V25.235C70.6392 26.6626 70.7485 28.0882 70.9629 29.5001H67.0351C66.9949 28.8127 66.9549 27.7963 66.9549 26.4561Z" fill="#009DA4"/>
<path d="M91.3643 11.5053V23.6074C91.3294 24.3601 91.5469 25.103 91.9824 25.72C92.1611 25.9969 92.4102 26.2217 92.7054 26.3713C93 26.521 93.3295 26.5903 93.6604 26.5719H94.9715V29.4968H93.294C92.5291 29.5391 91.764 29.4114 91.0548 29.1238C90.3457 28.8359 89.71 28.3948 89.1942 27.8327C88.2401 26.7274 87.7306 25.3119 87.7628 23.8573V11.5053H79.3401V23.6074C79.3068 24.359 79.5224 25.1009 79.9531 25.72C80.1333 25.9965 80.3835 26.2208 80.6792 26.3705C80.9748 26.52 81.3048 26.5896 81.6364 26.5719H82.9416V29.4968H81.2641C80.5002 29.5381 79.7362 29.4104 79.0281 29.1226C78.3201 28.8347 77.6853 28.3941 77.1701 27.8327C76.216 26.7274 75.7064 25.3119 75.7386 23.8573V11.5053H72.584V8.50112H75.7386V3.34452L79.2204 1.72034H79.3401V8.50112H87.7744V3.34452L91.2555 1.72034H91.3643V8.50112H95.4183V11.5053H91.3643Z" fill="#009DA4"/>
<path d="M103.895 14.0404C102.75 15.3806 102.178 17.2036 102.178 19.5604V29.4871H98.4961V8.47487H102.178L102.218 13.552H102.241C102.598 12.048 103.428 10.6956 104.611 9.6902C105.708 8.80523 107.054 8.28115 108.465 8.19092V11.8482C107.592 11.8707 106.734 12.0737 105.945 12.4444C105.156 12.815 104.455 13.3451 103.884 14.0006" fill="#009DA4"/>
<path d="M128.829 8.49597V29.5083H125.142V25.2435H125.102C124.787 26.5593 124.037 27.7328 122.972 28.5771C121.802 29.5391 120.317 30.044 118.798 29.9969C116.175 29.9969 114.25 29.2664 113.02 27.8048C111.715 26.2029 111.046 24.1832 111.137 22.1257V8.49597H114.836V21.7339C114.836 25.1868 116.307 26.8905 119.296 26.8905C120.085 26.9183 120.87 26.7769 121.598 26.476C122.326 26.1751 122.981 25.7218 123.516 25.1469C124.621 24.0112 125.153 22.1825 125.153 19.6213V8.49597H128.829Z" fill="#009DA4"/>
<path d="M143.465 11.9846C142.532 11.3756 141.432 11.0644 140.316 11.0929C139.325 11.0757 138.352 11.359 137.527 11.905C137.155 12.1199 136.845 12.4281 136.63 12.7989C136.415 13.1697 136.302 13.5899 136.302 14.0177C136.313 14.3806 136.412 14.7356 136.591 15.0528C136.769 15.37 137.022 15.6402 137.327 15.8406C137.883 16.2961 138.523 16.6412 139.211 16.8572C140.149 17.1596 141.105 17.4042 142.074 17.5898C142.24 17.6195 142.404 17.6594 142.566 17.709C146.866 18.6461 148.996 20.5939 148.996 23.479C149.03 24.4374 148.805 25.3872 148.343 26.2301C147.882 27.073 147.202 27.778 146.373 28.2721C144.662 29.3935 142.653 29.9864 140.602 29.9759C139.334 29.9811 138.074 29.7757 136.875 29.3683C135.609 28.9559 134.487 28.1958 133.64 27.1761C132.639 26.0656 132.059 24.6436 132.002 23.1553H135.689C135.832 24.2711 136.404 25.2887 137.287 25.9948C138.304 26.6535 139.509 26.9683 140.722 26.892C141.851 26.9219 142.966 26.6556 143.957 26.1197C144.389 25.8785 144.744 25.5228 144.982 25.0923C145.221 24.6618 145.334 24.174 145.309 23.6833C145.311 23.3802 145.27 23.0781 145.188 22.7862C145.062 22.5224 144.88 22.2881 144.656 22.0989C144.37 21.8945 144.163 21.7298 143.957 21.6106C143.651 21.4312 143.322 21.2935 142.978 21.2016C142.526 21.0823 142.2 20.9574 141.953 20.9177C141.707 20.878 141.295 20.7587 140.722 20.6338L139.537 20.3896C134.876 19.3333 132.586 17.266 132.586 14.1767C132.575 13.2844 132.791 12.4038 133.213 11.6159C133.636 10.8279 134.251 10.1579 135.002 9.66751C136.586 8.56932 138.475 7.9877 140.407 8.00356C142.422 7.94512 144.399 8.56125 146.019 9.75271C146.789 10.3674 147.417 11.1386 147.861 12.0144C148.306 12.8901 148.556 13.8501 148.595 14.8297H144.954C144.934 14.2734 144.787 13.7287 144.524 13.2367C144.261 12.7448 143.89 12.3186 143.436 11.9902" fill="#009DA4"/>
</svg>
