<svg width="60" height="90" viewBox="0 0 60 90" fill="none" xmlns="http://www.w3.org/2000/svg">
<path d="M45 29.948C53.2843 29.948 60 36.6781 60 44.9624C60 53.2466 53.2843 59.9768 45 59.9768C36.7157 59.9768 30 53.2466 30 44.9624C30 36.6781 36.7157 29.948 45 29.948Z" fill="#009DA4"/>
<path d="M0 45.0318C0 36.7476 6.71573 30.0175 15 30.0175C23.2843 30.0175 30 36.7476 30 45.0318C30 53.3161 23.2843 60.0462 15 60.0462C6.71573 60.0462 0 53.3161 0 45.0318Z" fill="#009DA4"/>
<path d="M30 74.9856C30 66.7013 36.7157 59.9712 45 59.9712C53.2843 59.9712 60 66.7013 60 74.9856C60 83.2698 53.2843 90 45 90C36.7157 90 30 83.2698 30 74.9856Z" fill="#009DA4"/>
<path d="M15 -6.52088e-07C23.2843 -2.9195e-07 30 6.73011 30 15.0144C30 23.2986 23.2843 30.0288 15 30.0288C6.71573 30.0288 -1.02401e-06 23.2986 -6.59905e-07 15.0144C-2.95799e-07 6.73011 6.71573 -1.01223e-06 15 -6.52088e-07Z" fill="#009DA4"/>
</svg>
