<svg width="77" height="15" viewBox="0 0 77 15" fill="none" xmlns="http://www.w3.org/2000/svg">
<path d="M7.14323 12.9201C7.8677 12.9273 8.58478 12.7777 9.241 12.4827C9.86744 12.1983 10.4241 11.7901 10.8743 11.2845C11.3395 10.7543 11.6959 10.1444 11.9248 9.48708C12.1794 8.7754 12.3066 8.02754 12.3005 7.2751C12.3068 6.54786 12.1767 5.82545 11.9157 5.14256C11.6779 4.50631 11.3142 3.92009 10.8449 3.41614C10.3864 2.92905 9.8312 2.5351 9.21154 2.25762C8.56265 1.96956 7.85516 1.82405 7.14025 1.8317C6.43684 1.82538 5.74129 1.97095 5.10447 2.25762C4.48835 2.53671 3.93609 2.93051 3.48014 3.41614C3.01301 3.91494 2.64684 4.49267 2.3999 5.11986C2.13442 5.79083 2.00099 6.50335 2.00644 7.22112C2.00071 7.97424 2.12677 8.72287 2.37916 9.43596C2.61055 10.0955 2.96772 10.7079 3.43267 11.2419C3.87988 11.7509 4.43187 12.1656 5.05425 12.4601C5.70391 12.7629 6.41801 12.9165 7.14025 12.9087L7.14323 12.9201ZM15.2567 14.7458H7.22292C6.26249 14.7506 5.31128 14.5642 4.42996 14.1978C3.565 13.8419 2.78245 13.3246 2.12786 12.6758C1.45718 12.0045 0.928657 11.2147 0.571487 10.3502C0.184028 9.41061 -0.00997396 8.40772 0.000394717 7.39718C-0.00915538 6.39564 0.17857 5.40139 0.553748 4.46675C0.899461 3.59807 1.4168 2.80163 2.07738 2.12132C2.72187 1.46222 3.49761 0.934026 4.35875 0.568103C5.25426 0.188243 6.22343 -0.00531711 7.20247 0.000185381C8.15444 -0.00673308 9.09746 0.18007 9.96899 0.548227C10.8156 0.904754 11.581 1.41808 12.2206 2.05885C12.873 2.71799 13.3906 3.48848 13.7475 4.33046C14.1267 5.23741 14.3166 6.20698 14.3069 7.18421C14.3079 7.78891 14.2384 8.39184 14.0995 8.9816C13.9685 9.55554 13.7639 10.1116 13.4902 10.6371C13.2277 11.1416 12.8896 11.6065 12.4869 12.0171C12.0953 12.4172 11.6323 12.747 11.1199 12.9911V13.0307H15.2624L15.2567 14.7458Z" fill="white"/>
<path d="M25.4424 4.24799V14.7541H23.5428V12.6218H23.522C23.3592 13.2797 22.9717 13.8664 22.4214 14.2885C21.8156 14.7701 21.0474 15.0225 20.2614 14.9985C18.908 14.9985 17.914 14.6332 17.2788 13.9024C16.6029 13.102 16.2567 12.0918 16.3053 11.0628V4.24799H18.2167V10.867C18.2167 12.5934 18.9771 13.4452 20.5217 13.4452C20.9291 13.4592 21.3351 13.3884 21.7114 13.238C22.0877 13.0875 22.4257 12.8609 22.7024 12.5735C23.2735 12.0056 23.5488 11.0912 23.5488 9.81065V4.24799H25.4424Z" fill="white"/>
<path d="M33.6928 12.5977C34.3291 12.0099 34.6457 11.0956 34.6457 9.87735V8.47471H34.6041C34.4596 8.87868 34.1758 9.22325 33.7995 9.45147C33.3764 9.71556 32.6366 9.93701 31.5773 10.1216C30.9023 10.1992 30.2485 10.3986 29.651 10.7093C29.448 10.8348 29.2839 11.0105 29.1763 11.2178C29.0685 11.4252 29.0206 11.6566 29.0385 11.8878C29.0362 12.1188 29.0927 12.347 29.203 12.5523C29.3131 12.7577 29.4741 12.9341 29.6718 13.0662C30.1566 13.384 30.7364 13.5405 31.3227 13.512C31.7612 13.5204 32.1967 13.4438 32.6036 13.2867C33.0104 13.1296 33.3798 12.8952 33.6898 12.5977H33.6928ZM34.6012 13.2281V12.822H34.5804C34.3722 13.4201 33.9804 13.9438 33.4562 14.3241C32.8852 14.77 32.0625 14.9942 30.9825 14.9942C29.7544 14.9942 28.8018 14.6904 28.1478 14.0601C27.8351 13.783 27.5855 13.4472 27.4139 13.0734C27.2422 12.6998 27.1527 12.2962 27.1508 11.8878C27.1427 11.4355 27.2526 10.9884 27.4703 10.5873C27.6523 10.2457 27.9039 9.94248 28.21 9.69567C28.5509 9.456 28.9296 9.27 29.3315 9.1448C29.7202 9.02397 30.1154 8.92262 30.5148 8.84099C30.8346 8.78133 31.2368 8.71887 31.7429 8.65926L32.6958 8.53718C33.2342 8.48133 33.7502 8.29991 34.199 8.00901C34.3381 7.88641 34.4467 7.73498 34.5166 7.56631C34.5861 7.39764 34.6151 7.21601 34.6012 7.03501C34.6015 6.81538 34.5434 6.59939 34.4319 6.40751C34.3204 6.21562 34.1599 6.05435 33.9651 5.93899C33.417 5.64424 32.7937 5.50264 32.1662 5.53008C31.5697 5.50254 30.9833 5.68307 30.5148 6.03832C30.2982 6.20526 30.1214 6.41537 29.9974 6.65405C29.8734 6.89279 29.8046 7.15453 29.7958 7.42123H27.8932C27.9435 6.5122 28.3516 5.65543 29.0354 5.0246C29.7546 4.33463 30.7694 3.98818 32.104 3.98818C32.7782 3.97975 33.4496 4.07564 34.0922 4.27216C34.5723 4.41719 35.0178 4.65166 35.4031 4.96218C35.7073 5.24751 35.9524 5.58573 36.1251 5.95882C36.2746 6.30428 36.381 6.66556 36.4416 7.03501C36.485 7.39223 36.5057 7.75158 36.5038 8.11125V12.6175C36.5051 13.3314 36.5617 14.0441 36.6724 14.7501H34.6426C34.6219 14.4064 34.6012 13.8982 34.6012 13.2281Z" fill="white"/>
<path d="M47.215 5.75268V11.8038C47.197 12.1801 47.3093 12.5515 47.5345 12.8601C47.6267 12.9985 47.7555 13.1109 47.9081 13.1857C48.0603 13.2605 48.2306 13.2951 48.4016 13.286H49.0791V14.7484H48.2122C47.8169 14.7696 47.4215 14.7058 47.0551 14.5619C46.6886 14.418 46.3601 14.1974 46.0936 13.9164C45.6005 13.3637 45.3372 12.656 45.3538 11.9286V5.75268H41.0012V11.8038C40.984 12.1796 41.0954 12.5505 41.3179 12.8601C41.4111 12.9983 41.5403 13.1104 41.6932 13.1853C41.846 13.26 42.0165 13.2948 42.1879 13.286H42.8623V14.7484H41.9955C41.6007 14.7691 41.2059 14.7052 40.8399 14.5613C40.4741 14.4174 40.146 14.1971 39.8797 13.9164C39.3867 13.3637 39.1234 12.656 39.14 11.9286V5.75268H37.5098V4.25056H39.14V1.67226L40.9393 0.860168H41.0012V4.25056H45.3598V1.67226L47.1588 0.860168H47.215V4.25056H49.31V5.75268H47.215Z" fill="white"/>
<path d="M53.6907 7.02021C53.0988 7.6903 52.803 8.60177 52.803 9.7802V14.7436H50.9004V4.23742H52.803L52.8238 6.77601H52.8355C53.0202 6.02399 53.4492 5.34781 54.0606 4.84509C54.6271 4.4026 55.3231 4.14059 56.0522 4.09546V5.92414C55.6009 5.93533 55.1577 6.03684 54.7497 6.22217C54.3423 6.40749 53.9796 6.67257 53.685 7.00033" fill="white"/>
<path d="M66.5767 4.24799V14.7541H64.6711V12.6218H64.6505C64.4877 13.2797 64.1004 13.8664 63.5498 14.2885C62.9449 14.7696 62.1779 15.022 61.3929 14.9985C60.0373 14.9985 59.0424 14.6332 58.4072 13.9024C57.7324 13.1015 57.3863 12.0916 57.434 11.0628V4.24799H59.3451V10.867C59.3451 12.5934 60.1057 13.4452 61.6501 13.4452C62.0575 13.4592 62.4632 13.3884 62.8397 13.238C63.2162 13.0875 63.5541 12.8609 63.8308 12.5735C64.402 12.0056 64.677 11.0912 64.677 9.81065V4.24799H66.5767Z" fill="white"/>
<path d="M74.1405 5.9923C73.6588 5.68782 73.0903 5.53227 72.5131 5.54648C72.001 5.53784 71.4982 5.67954 71.0723 5.95253C70.8798 6.05998 70.7197 6.21412 70.6085 6.3995C70.4973 6.58488 70.4393 6.79498 70.4393 7.00889C70.4452 7.19036 70.4962 7.36787 70.5885 7.52644C70.6807 7.68501 70.8109 7.82015 70.9687 7.92031C71.2562 8.14811 71.5866 8.32063 71.9424 8.42865C72.4274 8.57983 72.9211 8.70211 73.4217 8.79493C73.508 8.80977 73.5926 8.8297 73.6762 8.85454C75.8986 9.32305 76.9993 10.297 76.9993 11.7396C77.0167 12.2188 76.9006 12.6936 76.6619 13.1151C76.4238 13.5365 76.0722 13.8891 75.6437 14.1361C74.7595 14.6968 73.7212 14.9933 72.6612 14.988C72.0059 14.9906 71.355 14.8879 70.7355 14.6842C70.0807 14.478 69.5008 14.0979 69.0636 13.5881C68.5461 13.0328 68.2466 12.3218 68.2168 11.5777H70.1225C70.1962 12.1356 70.4919 12.6444 70.9481 12.9974C71.4743 13.3268 72.0965 13.4842 72.7236 13.4461C73.3067 13.461 73.8834 13.3278 74.3955 13.0599C74.6184 12.9393 74.8018 12.7614 74.9249 12.5462C75.0486 12.3309 75.1066 12.087 75.0936 11.8417C75.0947 11.6902 75.0741 11.5391 75.0312 11.3931C74.9661 11.2612 74.8723 11.1441 74.7562 11.0495C74.6087 10.9473 74.5018 10.8649 74.3955 10.8053C74.2371 10.7156 74.0667 10.6468 73.8893 10.6008C73.6555 10.5412 73.4868 10.4787 73.3594 10.4589C73.2324 10.439 73.0192 10.3794 72.7236 10.3169L72.1111 10.1949C69.7026 9.66669 68.5189 8.63303 68.5189 7.08838C68.5135 6.64224 68.6247 6.20194 68.8428 5.80797C69.0614 5.414 69.3793 5.07895 69.7677 4.83376C70.5857 4.28466 71.5622 3.99387 72.5609 4.00178C73.6024 3.97257 74.6239 4.28065 75.4603 4.8764C75.8585 5.18375 76.1829 5.56934 76.4129 6.00719C76.6424 6.44505 76.772 6.92507 76.7921 7.41488H74.9103C74.9 7.13674 74.824 6.86437 74.6884 6.6184C74.5522 6.37243 74.3602 6.15931 74.1259 5.99517" fill="white"/>
</svg>
