<svg width="32" height="21" viewBox="0 0 32 21" fill="none" xmlns="http://www.w3.org/2000/svg">
<path d="M20.6953 15.7326C20.6953 18.5899 18.379 20.9062 15.5217 20.9062C12.6644 20.9062 10.348 18.5899 10.348 15.7326C10.348 12.8753 12.6644 10.559 15.5217 10.559C18.379 10.559 20.6953 12.8753 20.6953 15.7326Z" fill="white"/>
<path d="M10.3477 5.38496C10.3477 8.24228 8.03134 10.5586 5.17402 10.5586C2.3167 10.5586 0.000384331 8.24228 0.000384331 5.38496C0.000384331 2.52764 2.3167 0.211322 5.17402 0.211322C8.03134 0.211322 10.3477 2.52764 10.3477 5.38496Z" fill="white"/>
<path d="M20.6953 5.38496C20.6953 8.24228 18.379 10.5586 15.5217 10.5586C12.6644 10.5586 10.348 8.24228 10.348 5.38496C10.348 2.52764 12.6644 0.211322 15.5217 0.211322C18.379 0.211322 20.6953 2.52764 20.6953 5.38496Z" fill="white"/>
<path d="M31.041 15.7326C31.041 18.5899 28.7247 20.9062 25.8674 20.9062C23.0101 20.9062 20.6937 18.5899 20.6937 15.7326C20.6937 12.8753 23.0101 10.559 25.8674 10.559C28.7247 10.559 31.041 12.8753 31.041 15.7326Z" fill="white"/>
</svg>
